<svg width="1722" height="457" viewBox="0 0 1722 457" fill="none" xmlns="http://www.w3.org/2000/svg">
<path d="M576.438 196.3C576.438 201.973 578.904 207.153 583.838 211.84C589.018 216.527 597.651 220.597 609.738 224.05L667.088 240.7C684.848 245.88 698.538 252.91 708.158 261.79C717.778 270.67 722.588 282.14 722.588 296.2C722.588 305.08 720.738 313.22 717.038 320.62C713.338 327.773 707.294 333.94 698.908 339.12C690.521 344.3 679.668 348.247 666.348 350.96C653.028 353.92 636.624 355.4 617.138 355.4C607.024 355.4 597.034 354.66 587.168 353.18C577.548 351.7 568.298 349.727 559.418 347.26C550.784 344.547 542.891 341.587 535.738 338.38C528.584 334.927 522.418 331.35 517.238 327.65L532.038 305.45C542.398 311.863 554.484 317.537 568.298 322.47C582.358 327.157 598.638 329.5 617.138 329.5C635.638 329.5 648.588 327.033 655.988 322.1C663.388 317.167 667.088 311 667.088 303.6C667.088 297.927 664.498 292.87 659.318 288.43C654.138 283.743 645.011 279.55 631.938 275.85L574.588 259.2C558.801 254.513 545.851 247.853 535.738 239.22C525.871 230.34 520.938 218.5 520.938 203.7C520.938 195.807 522.664 188.53 526.118 181.87C529.818 174.963 535.491 169.043 543.138 164.11C550.784 159.177 560.528 155.353 572.368 152.64C584.208 149.68 598.514 148.2 615.288 148.2C635.761 148.2 654.261 151.037 670.788 156.71C687.561 162.137 701.128 168.55 711.488 175.95L696.688 198.15C686.574 191.737 675.104 186.187 662.278 181.5C649.451 176.567 633.788 174.1 615.288 174.1C602.214 174.1 592.471 176.197 586.058 180.39C579.644 184.583 576.438 189.887 576.438 196.3ZM770.774 155.6H822.574V272.15C822.574 289.91 827.014 302.737 835.894 310.63C844.774 318.277 857.601 322.1 874.374 322.1H922.474V155.6H974.274V348H874.374C839.101 348 812.954 341.71 795.934 329.13C779.161 316.303 770.774 297.31 770.774 272.15V155.6ZM1183.48 181.5H1139.08C1122.31 181.5 1109.48 186.063 1100.6 195.19C1091.72 204.07 1087.28 217.39 1087.28 235.15V348H1035.48V235.15C1035.48 209.99 1043.38 190.503 1059.16 176.69C1075.2 162.63 1098.14 155.6 1127.98 155.6H1183.48V181.5ZM1240.69 159.3C1240.69 135.127 1248.21 116.133 1263.26 102.32C1278.31 88.5067 1299.77 81.6 1327.64 81.6C1337.01 81.6 1346.39 82.8333 1355.76 85.3C1365.38 87.7667 1373.89 90.85 1381.29 94.55L1370.19 118.6C1365.5 115.887 1359.71 113.42 1352.8 111.2C1345.89 108.733 1338.74 107.5 1331.34 107.5C1326.16 107.5 1321.23 108.487 1316.54 110.46C1311.85 112.433 1307.66 115.517 1303.96 119.71C1300.51 123.657 1297.67 128.96 1295.45 135.62C1293.48 142.28 1292.49 150.173 1292.49 159.3V163H1349.84V188.9H1292.49V348H1240.69V188.9H1205.54V163H1240.69V159.3ZM1455.36 348H1403.56V159.3H1455.36V348ZM1457.21 109.35C1457.21 116.75 1454.62 123.287 1449.44 128.96C1444.51 134.387 1437.85 137.1 1429.46 137.1C1421.07 137.1 1414.29 134.387 1409.11 128.96C1404.18 123.287 1401.71 116.75 1401.71 109.35C1401.71 101.95 1404.18 95.5367 1409.11 90.11C1414.29 84.4367 1421.07 81.6 1429.46 81.6C1437.6 81.6 1444.26 84.4367 1449.44 90.11C1454.62 95.5367 1457.21 101.95 1457.21 109.35ZM1623.73 148.2C1631.62 148.2 1639.51 148.94 1647.41 150.42C1655.3 151.653 1662.82 153.503 1669.98 155.97C1677.38 158.19 1684.16 161.027 1690.33 164.48C1696.74 167.933 1702.29 171.757 1706.98 175.95L1692.18 198.15C1682.06 190.503 1671.7 184.583 1661.1 180.39C1650.74 176.197 1639.51 174.1 1627.43 174.1C1618.55 174.1 1610.41 175.58 1603.01 178.54C1595.61 181.253 1589.19 185.817 1583.77 192.23C1578.34 198.397 1574.02 206.413 1570.82 216.28C1567.86 226.147 1566.38 237.987 1566.38 251.8C1566.38 265.613 1567.86 277.453 1570.82 287.32C1574.02 297.187 1578.46 305.327 1584.14 311.74C1589.81 317.907 1596.59 322.47 1604.49 325.43C1612.63 328.143 1621.51 329.5 1631.13 329.5C1643.21 329.5 1654.44 327.403 1664.8 323.21C1675.4 319.017 1685.76 313.097 1695.88 305.45L1710.68 327.65C1705.99 331.843 1700.44 335.667 1694.03 339.12C1687.86 342.573 1681.08 345.533 1673.68 348C1666.52 350.22 1659 351.947 1651.11 353.18C1643.21 354.66 1635.32 355.4 1627.43 355.4C1609.91 355.4 1593.88 353.057 1579.33 348.37C1565.02 343.93 1552.81 337.393 1542.7 328.76C1532.58 319.88 1524.69 309.027 1519.02 296.2C1513.59 283.373 1510.88 268.573 1510.88 251.8C1510.88 235.273 1513.59 220.597 1519.02 207.77C1524.69 194.697 1532.46 183.843 1542.33 175.21C1552.19 166.33 1564.03 159.67 1577.85 155.23C1591.66 150.543 1606.95 148.2 1623.73 148.2Z" fill="#434343"/>
<g filter="url(#filter0_d_304_21)">
<path d="M114.012 180.925C115.109 179.019 116.249 177.035 117.434 174.998L114.012 180.925ZM232.758 169.25C173.909 85.7904 138.568 138.666 117.434 174.998L190.754 48.0043C204.146 24.8071 233.809 16.8592 257.006 30.2521C280.203 43.645 288.151 73.3071 274.758 96.5043L232.758 169.25ZM108.258 384.891C94.8652 408.088 65.203 416.036 42.0058 402.643C18.8086 389.25 10.8607 359.588 24.2536 336.391L114.012 180.925C113.672 181.515 113.336 182.097 113.004 182.672L66.5044 263.212C108.827 190.075 192.008 239.832 150.258 312.145L108.258 384.891Z" fill="#14223F"/>
</g>
<g filter="url(#filter1_d_304_21)">
<path d="M365.013 203.47C366.115 205.373 367.263 207.353 368.435 209.397L365.013 203.47ZM315.75 312.145C417.453 302.91 389.332 245.866 368.435 209.397L441.754 336.391C455.147 359.588 447.199 389.25 424.002 402.643C400.805 416.036 371.143 408.088 357.75 384.891L315.75 312.145ZM191.25 96.5043C177.857 73.3071 185.805 43.6449 209.002 30.252C232.199 16.8591 261.862 24.8071 275.254 48.0043L365.013 203.47C364.672 202.881 364.335 202.299 364.004 201.724L317.504 121.184C359.681 194.405 275 241.563 233.25 169.25L191.25 96.5043Z" fill="#14223F"/>
</g>
<g filter="url(#filter2_d_304_21)">
<path d="M219.983 409.001C217.784 409.004 215.496 409.008 213.14 409.001H219.983ZM150.5 312.001C107.646 404.696 171.108 408.864 213.14 409.001H66.5C39.7142 409.001 18 387.287 18 360.501C18 333.715 39.7142 312.001 66.5 312.001H150.5ZM399.5 312.001C426.286 312.001 448 333.715 448 360.501C448 387.287 426.286 409.001 399.5 409.001H219.983C220.664 409 221.337 409 222 409H315C230.5 408.916 232 312.001 315.5 312.001H399.5Z" fill="#14223F"/>
</g>
<defs>
<filter id="filter0_d_304_21" x="13.7478" y="23.7462" width="271.516" height="393.403" filterUnits="userSpaceOnUse" color-interpolation-filters="sRGB">
<feFlood flood-opacity="0" result="BackgroundImageFix"/>
<feColorMatrix in="SourceAlpha" type="matrix" values="0 0 0 0 0 0 0 0 0 0 0 0 0 0 0 0 0 0 127 0" result="hardAlpha"/>
<feOffset dy="4"/>
<feGaussianBlur stdDeviation="2"/>
<feComposite in2="hardAlpha" operator="out"/>
<feColorMatrix type="matrix" values="0 0 0 0 0 0 0 0 0 0 0 0 0 0 0 0 0 0 0.25 0"/>
<feBlend mode="normal" in2="BackgroundImageFix" result="effect1_dropShadow_304_21"/>
<feBlend mode="normal" in="SourceGraphic" in2="effect1_dropShadow_304_21" result="shape"/>
</filter>
<filter id="filter1_d_304_21" x="180.744" y="23.7462" width="271.516" height="393.403" filterUnits="userSpaceOnUse" color-interpolation-filters="sRGB">
<feFlood flood-opacity="0" result="BackgroundImageFix"/>
<feColorMatrix in="SourceAlpha" type="matrix" values="0 0 0 0 0 0 0 0 0 0 0 0 0 0 0 0 0 0 127 0" result="hardAlpha"/>
<feOffset dy="4"/>
<feGaussianBlur stdDeviation="2"/>
<feComposite in2="hardAlpha" operator="out"/>
<feColorMatrix type="matrix" values="0 0 0 0 0 0 0 0 0 0 0 0 0 0 0 0 0 0 0.25 0"/>
<feBlend mode="normal" in2="BackgroundImageFix" result="effect1_dropShadow_304_21"/>
<feBlend mode="normal" in="SourceGraphic" in2="effect1_dropShadow_304_21" result="shape"/>
</filter>
<filter id="filter2_d_304_21" x="14" y="312.001" width="438" height="105.004" filterUnits="userSpaceOnUse" color-interpolation-filters="sRGB">
<feFlood flood-opacity="0" result="BackgroundImageFix"/>
<feColorMatrix in="SourceAlpha" type="matrix" values="0 0 0 0 0 0 0 0 0 0 0 0 0 0 0 0 0 0 127 0" result="hardAlpha"/>
<feOffset dy="4"/>
<feGaussianBlur stdDeviation="2"/>
<feComposite in2="hardAlpha" operator="out"/>
<feColorMatrix type="matrix" values="0 0 0 0 0 0 0 0 0 0 0 0 0 0 0 0 0 0 0.25 0"/>
<feBlend mode="normal" in2="BackgroundImageFix" result="effect1_dropShadow_304_21"/>
<feBlend mode="normal" in="SourceGraphic" in2="effect1_dropShadow_304_21" result="shape"/>
</filter>
</defs>
</svg>
