<?xml version="1.0" encoding="UTF-8"?>
<!DOCTYPE svg PUBLIC "-//W3C//DTD SVG 1.1//EN" "http://www.w3.org/Graphics/SVG/1.1/DTD/svg11.dtd">
<svg xmlns="http://www.w3.org/2000/svg" version="1.1" width="186px" height="126px" style="shape-rendering:geometricPrecision; text-rendering:geometricPrecision; image-rendering:optimizeQuality; fill-rule:evenodd; clip-rule:evenodd" xmlns:xlink="http://www.w3.org/1999/xlink">
<g><path style="opacity:1" fill="#5289ea" d="M 46.5,4.5 C 57.3308,3.17119 62.4974,7.83786 62,18.5C 57.9751,26.1753 52.1418,28.0086 44.5,24C 38.6471,16.6718 39.3138,10.1718 46.5,4.5 Z"/></g>
<g><path style="opacity:1" fill="#0d429f" d="M 148.5,8.5 C 155.391,7.90129 162.058,8.73462 168.5,11C 171.616,13.4 172.949,16.5666 172.5,20.5C 172.707,23.8318 171.874,26.8318 170,29.5C 167.704,27.9431 165.538,26.2764 163.5,24.5C 164.374,22.2534 164.708,19.9201 164.5,17.5C 157.8,16.0535 151.134,16.2201 144.5,18C 131.837,22.1052 119.504,26.7719 107.5,32C 105.33,30.4138 102.996,29.0804 100.5,28C 115.799,19.5083 131.799,13.0083 148.5,8.5 Z"/></g>
<g><path style="opacity:1" fill="#346bca" d="M 95.5,30.5 C 95.8064,33.3854 95.4731,36.0521 94.5,38.5C 85.1887,33.8443 75.8553,29.1777 66.5,24.5C 67.7472,22.677 68.4139,20.677 68.5,18.5C 78.0274,21.3413 87.0274,25.3413 95.5,30.5 Z"/></g>
<g><path style="opacity:1" fill="#4a81e0" d="M 26.5,8.5 C 29.2469,8.18665 31.9135,8.51998 34.5,9.5C 33.6258,11.7466 33.2924,14.0799 33.5,16.5C 26.0866,15.7443 23.9199,18.7443 27,25.5C 33.9019,35.5724 42.0686,44.5724 51.5,52.5C 49.5398,54.1563 47.5398,55.823 45.5,57.5C 36.8133,50.9801 29.3133,43.3134 23,34.5C 18.8774,28.801 17.2107,22.4676 18,15.5C 20.217,12.3227 23.0503,9.98935 26.5,8.5 Z"/></g>
<g><path style="opacity:1" fill="#082d6d" d="M 158.5,29.5 C 167.818,29.6546 169.818,33.488 164.5,41C 155.096,41.141 153.096,37.3076 158.5,29.5 Z"/></g>
<g><path style="opacity:1" fill="#0d44a3" d="M 28.5,104.5 C 30.2922,105.309 32.2922,105.809 34.5,106C 31.4721,107.844 28.4721,109.678 25.5,111.5C 18.5677,108.934 16.0677,103.934 18,96.5C 20.2454,91.0026 23.2454,86.0026 27,81.5C 43.3418,63.9783 61.8418,49.3116 82.5,37.5C 85.0048,39.2533 87.6714,40.7533 90.5,42C 69.6703,53.8201 50.837,68.3201 34,85.5C 30.9368,89.5689 28.2701,93.9022 26,98.5C 25.3333,100.167 25.3333,101.833 26,103.5C 26.6708,104.252 27.5041,104.586 28.5,104.5 Z"/></g>
<g><path style="opacity:1" fill="#285ebd" d="M 95.5,30.5 C 105.166,35.6643 114.5,41.3309 123.5,47.5C 123.5,50.5 123.5,53.5 123.5,56.5C 113.828,50.4923 104.162,44.4923 94.5,38.5C 95.4731,36.0521 95.8064,33.3854 95.5,30.5 Z"/></g>
<g><path style="opacity:1" fill="#0a3785" d="M 151.5,40.5 C 153.932,41.7502 156.266,43.2502 158.5,45C 154.28,49.723 149.613,53.8897 144.5,57.5C 142.5,56.1667 140.833,54.5 139.5,52.5C 143.827,48.8394 147.827,44.8394 151.5,40.5 Z"/></g>
<g><path style="opacity:1" fill="#0a3681" d="M 123.5,63.5 C 126.075,64.7284 128.408,66.3951 130.5,68.5C 123.413,74.1262 115.913,79.1262 108,83.5C 105.278,82.5559 102.778,81.2225 100.5,79.5C 108.408,74.3908 116.074,69.0574 123.5,63.5 Z"/></g>
<g><path style="opacity:1" fill="#3970d0" d="M 82.5,74.5 C 82.8064,77.3854 82.4731,80.0521 81.5,82.5C 73.9687,78.6363 66.9687,73.9696 60.5,68.5C 62.0082,66.4925 63.8416,64.8259 66,63.5C 71.2706,67.549 76.7706,71.2157 82.5,74.5 Z"/></g>
<g><path style="opacity:1" fill="#164caa" d="M 123.5,47.5 C 138.989,57.4819 152.822,69.4819 165,83.5C 179.273,105.92 173.107,115.42 146.5,112C 142.573,111.276 138.906,110.109 135.5,108.5C 136.468,106.393 136.802,104.059 136.5,101.5C 145.325,104.122 154.325,104.955 163.5,104C 164.591,101.936 164.758,99.7695 164,97.5C 162.503,93.8351 160.503,90.5017 158,87.5C 147.498,75.8195 135.998,65.4862 123.5,56.5C 123.5,53.5 123.5,50.5 123.5,47.5 Z"/></g>
<g><path style="opacity:1" fill="#2e64c3" d="M 82.5,74.5 C 91.598,80.269 100.931,85.6023 110.5,90.5C 111.01,93.3878 110.344,95.7211 108.5,97.5C 98.7303,93.6947 89.7303,88.6947 81.5,82.5C 82.4731,80.0521 82.8064,77.3854 82.5,74.5 Z"/></g>
<g><path style="opacity:1" fill="#0b3989" d="M 25.5,111.5 C 28.4721,109.678 31.4721,107.844 34.5,106C 32.2922,105.809 30.2922,105.309 28.5,104.5C 35.6391,104.822 42.6391,103.988 49.5,102C 60.6104,98.5271 71.4437,94.3604 82,89.5C 84.7224,90.4441 87.2224,91.7775 89.5,93.5C 72.3071,103.731 53.8071,110.064 34,112.5C 30.9792,112.498 28.1459,112.164 25.5,111.5 Z"/></g>
<g><path style="opacity:1" fill="#2259b8" d="M 110.5,90.5 C 119.235,94.2062 127.901,97.8728 136.5,101.5C 136.802,104.059 136.468,106.393 135.5,108.5C 125.875,106.181 116.875,102.515 108.5,97.5C 110.344,95.7211 111.01,93.3878 110.5,90.5 Z"/></g>
</svg>
