<svg width="1593" height="274" viewBox="0 0 1593 274" fill="none" xmlns="http://www.w3.org/2000/svg">
<path d="M255.3 197.95C255.3 208.557 253.08 218.547 248.64 227.92C244.2 237.047 236.923 245.063 226.81 251.97C216.943 258.63 203.993 263.933 187.96 267.88C172.173 271.827 152.687 273.8 129.5 273.8C116.427 273.8 103.6 272.813 91.0199 270.84C78.6866 268.867 66.8466 266.03 55.4999 262.33C44.3999 258.63 34.0399 254.19 24.4199 249.01C15.0466 243.583 6.90657 237.663 -9.72152e-05 231.25L18.4999 209.05C32.5599 221.137 48.9632 230.387 67.7099 236.8C86.4566 242.967 107.053 246.05 129.5 246.05C154.413 246.05 172.05 242.597 182.41 235.69C192.77 228.783 197.95 219.287 197.95 207.2C197.95 197.827 193.88 189.933 185.74 183.52C177.6 177.107 163.787 170.817 144.3 164.65L73.9999 142.45C50.8132 135.05 33.2999 125.677 21.4599 114.33C9.6199 102.737 3.6999 88.06 3.6999 70.3C3.6999 61.1733 5.79657 52.4167 9.9899 44.03C14.4299 35.3967 21.2132 27.8733 30.3399 21.46C39.4666 14.8 51.0599 9.61998 65.1199 5.91997C79.4266 1.97331 96.5699 -1.66893e-05 116.55 -1.66893e-05C128.637 -1.66893e-05 140.6 0.986652 152.44 2.95999C164.527 4.93331 175.997 7.76998 186.85 11.47C197.95 15.17 208.187 19.7333 217.56 25.16C227.18 30.34 235.443 36.1366 242.35 42.55L223.85 64.75C209.79 52.6633 194.003 43.5366 176.49 37.37C158.977 30.9566 138.997 27.75 116.55 27.75C98.0499 27.75 84.1132 30.9566 74.7399 37.37C65.6132 43.7833 61.0499 51.6766 61.0499 61.05C61.0499 66.23 61.9132 70.7933 63.6399 74.74C65.3666 78.44 68.2032 82.0167 72.1499 85.47C76.3432 88.6767 81.7699 91.76 88.4299 94.72C95.0899 97.4333 103.353 100.393 113.22 103.6L183.15 125.8C205.597 132.953 223.233 142.327 236.06 153.92C248.887 165.513 255.3 180.19 255.3 197.95ZM436.6 247.9C448.687 247.9 459.54 246.297 469.16 243.09C479.027 239.637 487.413 234.457 494.32 227.55C501.227 220.397 506.53 211.393 510.23 200.54C514.177 189.44 516.15 176.243 516.15 160.95V7.39998H569.8V160.95C569.8 198.937 558.207 227.303 535.02 246.05C511.833 264.55 479.027 273.8 436.6 273.8C393.927 273.8 360.997 264.55 337.81 246.05C314.87 227.303 303.4 198.937 303.4 160.95V7.39998H357.05V160.95C357.05 176.243 358.9 189.44 362.6 200.54C366.547 211.393 371.973 220.397 378.88 227.55C385.787 234.457 394.05 239.637 403.67 243.09C413.537 246.297 424.513 247.9 436.6 247.9ZM766.03 7.39998C784.53 7.39998 801.057 9.49665 815.61 13.69C830.41 17.6366 842.867 23.5566 852.98 31.45C863.093 39.0966 870.863 48.5933 876.29 59.94C881.717 71.04 884.43 83.7433 884.43 98.05C884.43 117.783 879.497 134.433 869.63 148C859.763 161.567 845.58 171.927 827.08 179.08L888.13 266.4H827.08L772.69 188.7H766.03H686.48V266.4H632.83V7.39998H766.03ZM686.48 35.15V160.95H766.03C785.517 160.95 800.563 155.893 811.17 145.78C821.777 135.42 827.08 119.51 827.08 98.05C827.08 76.59 821.777 60.8033 811.17 50.69C800.563 40.33 785.517 35.15 766.03 35.15H686.48ZM993.508 35.15V123.95H1128.56V151.7H993.508V266.4H939.858V7.39998H1172.96V35.15H993.508ZM1270.91 266.4H1217.26V7.39998H1270.91V266.4ZM1481.86 246.05C1498.64 246.05 1514.67 243.213 1529.96 237.54C1545.5 231.62 1560.3 222.123 1574.36 209.05L1592.86 231.25C1578.8 244.323 1561.78 254.683 1541.8 262.33C1521.82 269.977 1500.61 273.8 1478.16 273.8C1454.98 273.8 1434.01 270.84 1415.26 264.92C1396.76 259 1380.85 250.243 1367.53 238.65C1354.46 227.057 1344.35 212.75 1337.19 195.73C1330.04 178.71 1326.46 159.1 1326.46 136.9C1326.46 114.7 1329.92 95.09 1336.82 78.07C1343.98 61.05 1353.97 46.7433 1366.79 35.15C1379.87 23.5566 1395.53 14.8 1413.78 8.87998C1432.04 2.95998 1452.26 -1.66893e-05 1474.46 -1.66893e-05C1496.91 -1.66893e-05 1518.12 3.82332 1538.1 11.47C1558.08 19.1166 1575.1 29.4766 1589.16 42.55L1570.66 64.75C1556.6 51.6766 1541.8 42.3033 1526.26 36.63C1510.97 30.71 1494.94 27.75 1478.16 27.75C1464.84 27.75 1452.39 29.97 1440.79 34.41C1429.2 38.6033 1419.21 45.14 1410.82 54.02C1402.44 62.9 1395.78 74.2466 1390.84 88.06C1386.16 101.627 1383.81 117.907 1383.81 136.9C1383.81 155.893 1386.16 172.297 1390.84 186.11C1395.78 199.677 1402.56 210.9 1411.19 219.78C1420.07 228.66 1430.43 235.32 1442.27 239.76C1454.36 243.953 1467.56 246.05 1481.86 246.05Z" fill="#434343"/>
</svg>
